# xmcd CD database file
# Copyright (C) 1993-1996 Ti Kan
#
# Track frame offsets:
#	150
#	31852
#	44477
#	84350
#	119267
#	141830
#
# Disc length: 2329 seconds
#
# Revision: 1
# Processed by: cddbd v1.4b41PL1 Copyright (c) Steve Scherf et al.
# Submitted via: CDValet v3.31 - Copyright (c) 1997 Greg Leichner
#
DISCID=47091706
DTITLE=Little Milton - Grits Ain't Groceries
DYEAR=1900
DGENRE=
TTITLE0=Let Me Down Easy
TTITLE1=Grits Ain't Groceries (All Around The World)
TTITLE2=Blind Man
TTITLE3=I Can't Quit You Baby
TTITLE4=That' What Love Will Make You Do
TTITLE5=Walking The Back Streets And Crying
EXTD=
EXTT0=
EXTT1=
EXTT2=
EXTT3=
EXTT4=
EXTT5=
PLAYORDER=
